<svg data-v-fde0c5aa="" xmlns="http://www.w3.org/2000/svg" viewBox="0 0 300 300" class="iconLeft"><!----><defs data-v-fde0c5aa=""><!----></defs><rect data-v-fde0c5aa="" fill="#08415C" x="0" y="0" width="300px" height="300px" class="logo-background-square"></rect><defs data-v-fde0c5aa=""><!----></defs><g data-v-fde0c5aa="" id="4a012ed3-6cca-4fca-8f5a-5c1e3236f03b" fill="#A9663E" transform="matrix(2.072516319644544,0,0,2.072516319644544,115.48342371200894,133.96908685555985)"><path d="M6.62 1.92C6.62 3.05 5.75 4.47 4.61 4.82L5.42 1.02C5.25 0.91 5.00 0.84 4.75 0.84C4.23 0.84 3.68 1.08 3.54 1.74L1.95 9.27C1.72 9.14 1.51 9.00 1.30 8.82C0.91 8.95 0.74 9.24 0.74 9.55C0.74 10.19 2.03 10.61 3.57 10.61C6.24 10.61 8.09 8.32 8.09 6.62C8.09 5.63 7.45 4.84 5.98 4.84L5.96 4.83C7.36 4.09 8.16 2.83 8.16 1.75C8.16 0.13 6.89-0.28 5.15-0.28C2.97-0.28 0.45 0.74 0.45 2.30C0.45 3.00 0.87 3.63 1.58 3.63C1.78 3.63 1.97 3.58 2.18 3.49C2.02 3.29 1.90 3.04 1.90 2.67C1.90 1.27 3.56 0.38 4.93 0.38C6.08 0.38 6.62 0.84 6.62 1.92ZM5.08 5.45C5.91 5.45 6.30 5.96 6.30 6.69C6.30 8.19 5.01 9.72 3.57 9.72L3.56 9.72L4.45 5.53C4.68 5.47 4.89 5.45 5.08 5.45ZM13.68 4.72C13.68 4.09 13.36 3.37 12.08 3.37C9.77 3.37 8.57 6.29 8.57 8.11C8.57 9.83 9.63 10.61 10.95 10.61C12.31 10.61 13.93 9.77 14.90 8.36C15.05 8.11 14.91 7.81 14.55 7.88C13.94 8.68 12.66 9.39 11.65 9.39C11.00 9.39 10.49 9.11 10.35 8.36C13.05 6.86 13.68 5.91 13.68 4.72ZM12.18 4.47C12.42 4.47 12.59 4.69 12.59 5.01C12.59 5.92 11.66 6.90 10.30 7.76C10.35 6.78 10.79 4.47 12.18 4.47ZM17.60 4.31C18.03 4.31 18.26 3.95 18.19 3.50L17.11 3.50L17.21 3.08C17.43 2.03 17.78 1.09 18.42 1.09C18.77 1.09 18.94 1.23 18.94 1.50C18.94 1.69 18.87 2.07 18.72 2.41C18.90 2.53 19.10 2.59 19.28 2.60C19.80 2.63 20.26 2.24 20.26 1.46C20.26 0.55 19.68 0.10 18.49 0.10C17.16 0.10 15.97 1.19 15.58 3.00L15.47 3.50L15.19 3.50C14.76 3.50 14.53 3.86 14.60 4.31L15.30 4.31L13.97 10.50C13.36 13.36 12.95 14.64 12.00 14.64C11.47 14.64 11.14 14.38 11.03 13.87C10.75 13.87 10.57 14.01 10.57 14.25C10.57 15.43 11.27 15.89 12.11 15.89C14.07 15.89 14.80 14.28 15.61 10.50L16.94 4.31ZM21.45 3.37C19.33 3.37 17.86 6.02 17.86 8.13C17.86 9.45 18.48 10.61 19.92 10.61C22.12 10.61 23.62 7.97 23.62 5.88C23.62 4.51 22.97 3.37 21.45 3.37ZM21.76 4.44C22.33 4.44 22.57 5.01 22.57 5.77C22.57 7.24 21.67 9.39 20.57 9.39C20.08 9.39 19.66 8.92 19.66 7.69C19.66 6.31 20.48 4.44 21.76 4.44ZM26.81 4.20C26.92 3.67 26.64 3.43 26.14 3.43C25.55 3.43 25.05 3.72 24.57 4.10C24.29 4.33 24.39 4.76 24.57 4.87C24.70 4.76 24.78 4.70 24.85 4.70C24.98 4.70 25.03 4.83 24.99 5.05L23.84 10.43C24.01 10.54 24.25 10.61 24.50 10.61C25.00 10.61 25.54 10.37 25.68 9.73L25.84 8.88C26.56 5.64 27.22 5.01 27.68 5.01C27.97 5.01 28.11 5.17 28.11 5.36C28.11 5.53 28.06 5.71 27.96 5.80C28.08 5.84 28.24 5.85 28.36 5.85C29.09 5.85 29.48 5.17 29.48 4.54C29.48 3.96 29.13 3.43 28.46 3.43C27.82 3.43 27.22 3.82 26.66 4.96ZM34.15 4.72C34.15 4.09 33.82 3.37 32.55 3.37C30.24 3.37 29.04 6.29 29.04 8.11C29.04 9.83 30.10 10.61 31.42 10.61C32.77 10.61 34.40 9.77 35.36 8.36C35.52 8.11 35.38 7.81 35.01 7.88C34.41 8.68 33.12 9.39 32.12 9.39C31.47 9.39 30.95 9.11 30.81 8.36C33.52 6.86 34.15 5.91 34.15 4.72ZM32.65 4.47C32.89 4.47 33.05 4.69 33.05 5.01C33.05 5.92 32.13 6.90 30.77 7.76C30.81 6.78 31.26 4.47 32.65 4.47ZM45.77 10.61C47.10 10.61 47.95 9.37 47.95 8.90C47.95 8.78 47.89 8.65 47.74 8.58C47.47 8.96 47.03 9.28 46.65 9.28C45.61 9.28 45.19 6.86 44.98 4.73C46.54 3.49 47.59 2.10 47.59 0.78C47.59 0.27 47.08-0.06 46.62-0.06C46.45-0.06 46.26-0.03 46.10 0.06C45.77 1.64 45.18 3.82 43.23 4.96L42.90 5.07L43.81 0.77L43.93 0.77C44.25 0.77 44.42 0.49 44.42 0.22C44.42 0.08 44.37-0.06 44.23-0.14C43.62 0.20 42.43-0.42 41.27-0.42C39.62-0.42 38.95 0.59 38.95 1.47C38.95 2.17 39.37 2.80 40.08 2.80C40.28 2.80 40.47 2.76 40.68 2.66C40.52 2.46 40.40 2.16 40.40 1.85C40.40 1.19 40.87 0.48 42.14 0.48L42.21 0.48L39.96 10.43C40.11 10.54 40.38 10.61 40.70 10.61C41.22 10.61 41.76 10.37 41.90 9.72L42.73 5.81L43.44 5.71C43.61 7.91 44.16 10.61 45.77 10.61ZM47.94 4.87C48.06 4.76 48.15 4.70 48.22 4.70C48.34 4.70 48.41 4.83 48.36 5.05L47.21 10.43C47.38 10.54 47.61 10.61 47.87 10.61C48.37 10.61 48.90 10.37 49.04 9.73L49.90 5.74C50.20 5.36 50.76 5.01 51.14 5.01C51.45 5.01 51.65 5.25 51.52 5.84L50.93 8.62C50.58 10.26 51.32 10.61 52.02 10.61C52.96 10.61 53.90 9.97 54.56 9.23C54.64 9.13 54.68 9.02 54.68 8.92C54.68 8.78 54.60 8.65 54.45 8.58C54.10 8.93 53.49 9.28 52.98 9.28C52.70 9.28 52.51 9.11 52.60 8.71L53.28 5.49C53.61 4.02 53.07 3.43 52.33 3.43C51.52 3.43 50.62 3.99 50.04 4.83L50.18 4.20C50.30 3.67 50.01 3.43 49.50 3.43C48.92 3.43 48.41 3.72 47.94 4.10C47.66 4.33 47.75 4.76 47.94 4.87ZM57.86 3.37C55.75 3.37 54.28 6.02 54.28 8.13C54.28 9.45 54.89 10.61 56.34 10.61C58.53 10.61 60.03 7.97 60.03 5.88C60.03 4.51 59.39 3.37 57.86 3.37ZM58.17 4.44C58.74 4.44 58.98 5.01 58.98 5.77C58.98 7.24 58.09 9.39 56.98 9.39C56.49 9.39 56.07 8.92 56.07 7.69C56.07 6.31 56.90 4.44 58.17 4.44ZM65.00 4.31C64.54 6.82 64.13 8.32 63.28 9.16C63.00 8.61 62.89 7.87 62.89 7.04C62.89 6.12 63.03 5.11 63.22 4.20C63.34 3.67 63.06 3.43 62.55 3.43C61.80 3.43 60.79 4.10 60.79 4.42C60.79 4.54 60.80 4.68 61.00 4.86C61.08 4.76 61.18 4.70 61.26 4.70C61.36 4.70 61.46 4.77 61.42 4.91C61.24 5.49 61.12 6.38 61.12 7.29C61.12 8.93 61.49 10.61 62.44 10.61C63.18 10.61 64.11 9.59 64.85 7.91C64.93 9.30 65.20 10.61 65.93 10.61C67.44 10.61 69.73 7.18 69.73 3.98C69.73 2.95 69.15 2.44 68.60 2.42C68.14 2.41 67.69 2.77 67.66 3.50C68.25 3.77 68.53 4.59 68.53 5.53C68.53 6.85 67.83 8.32 66.77 9.16C66.47 8.53 66.35 7.81 66.35 7.06C66.35 6.01 66.57 4.84 66.84 3.61C66.68 3.50 66.42 3.43 66.18 3.43C65.67 3.43 65.13 3.67 65.00 4.31Z"></path></g><defs data-v-fde0c5aa=""><!----></defs><g data-v-fde0c5aa="" id="ac08542b-1e6a-4a38-8cab-4c9b3adf1ac2" stroke="none" fill="#A9663E" transform="matrix(0.7181885438485528,0,0,0.7181885438485528,39.35363028485188,117.68151689665106)"><path d="M88.3 75.7c-1.9-1.2-3.5-2.8-4.7-4.7 1.8-3 2.8-6.5 2.8-10.1 0-10.7-8.7-19.4-19.4-19.4-.9 0-1.8.1-2.8.2-.9.1-1.5.9-1.3 1.8.1.9.9 1.5 1.8 1.3.9-.1 1.6-.2 2.4-.2 9 0 16.3 7.3 16.3 16.3 0 3.3-1 6.4-2.8 9.1-.3.5-.4 1.1-.1 1.7.9 1.7 2.1 3.3 3.6 4.6-2.7.4-5.5 0-8-1.1-.4-.2-1-.2-1.4.1-2.4 1.2-4.9 1.9-7.6 1.9-8.8 0-16.1-7.1-16.2-15.9 0-.9-.7-1.6-1.6-1.6-.9 0-1.6.7-1.6 1.6.2 10.5 8.9 19 19.4 19 2.9 0 5.8-.7 8.4-1.9 3.1 1.2 6.5 1.5 9.9.9 1-.2 1.9-.4 2.8-.8.6-.2 1-.7 1-1.3-.1-.6-.4-1.2-.9-1.5z"></path><path d="M62.3 35.3c0-14.1-11.5-25.6-25.6-25.6H26.5C12.4 9.7.9 21.2.9 35.3.9 45 6.4 53.8 15 58.2c-1.1 1.8-2.4 3.4-4 4.9-.4.4-.6 1-.4 1.6.2.6.7 1 1.3 1.1 1.4.2 2.8.3 4.1.3 5.7 0 11-1.8 15.5-5.2h5.2c14.1 0 25.6-11.5 25.6-25.6zM36.7 57.7h-5.8c-.4 0-.7.1-1 .3-4.1 3.3-9.1 5-14.4 4.9 1.2-1.5 2.3-3.1 3.1-4.8.2-.4.2-.9.1-1.3-.2-.4-.5-.7-.9-.9C9.5 52.5 4.1 44.4 4.1 35.3c0-12.4 10.1-22.4 22.4-22.4h10.2c12.4 0 22.4 10.1 22.4 22.4 0 12.4-10 22.4-22.4 22.4z"></path><path d="M37.4 23.7c-1.4-1.2-3.2-1.8-5.4-1.8s-4.1.6-5.6 1.9c-1.5 1.3-2.4 3-2.6 5.2h4.5c.1-1 .5-1.8 1.1-2.3.6-.6 1.4-.9 2.4-.9s1.7.3 2.3.9c.6.6.9 1.3.9 2.3 0 .9-.3 1.7-.9 2.3L31.4 34c-.8.8-1.3 1.4-1.6 1.9-.2.5-.4 1.2-.4 2.2v2.3h4.2v-1.7c0-1 .2-1.8.7-2.3l.7-.7c.3-.3.6-.6 1.1-1l1-1c.3-.2.6-.7 1.1-1.3.8-1 1.2-2.2 1.2-3.7.1-2.1-.6-3.8-2-5zM31.7 43.2c-.8 0-1.5.3-2 .8-.6.6-.8 1.2-.8 2s.3 1.4.9 1.9c.6.5 1.3.8 2 .8.8 0 1.5-.3 2-.8.6-.5.8-1.2.8-2s-.3-1.4-.9-1.9c-.6-.5-1.3-.8-2-.8zM66.1 57.6h2.3v11.2h-2.3zM68.3 53.3c-.3-.3-.6-.4-1-.4s-.8.1-1 .4c-.3.3-.4.6-.4 1s.1.8.4 1c.3.3.6.4 1 .4s.8-.1 1-.4c.3-.3.4-.6.4-1 0-.3-.1-.7-.4-1z"></path></g><!----></svg>